<?xml version="1.0" encoding="UTF-8" standalone="no"?>
<!DOCTYPE svg PUBLIC "-//W3C//DTD SVG 1.1//EN"
 "http://www.w3.org/Graphics/SVG/1.1/DTD/svg11.dtd">
<!-- Generated by graphviz version 2.38.0 (20140413.2041)
 -->
<!-- Title: FeatureTree Pages: 1 -->
<svg width="902pt" height="495pt"
 viewBox="0.00 0.00 902.00 494.80" xmlns="http://www.w3.org/2000/svg" xmlns:xlink="http://www.w3.org/1999/xlink">
<g id="graph0" class="graph" transform="scale(1 1) rotate(0) translate(4 490.796)">
<title>FeatureTree</title>
<polygon fill="white" stroke="none" points="-4,4 -4,-490.796 897.995,-490.796 897.995,4 -4,4"/>
<!-- 158 -->
<g id="node1" class="node"><title>158</title>
<ellipse fill="none" stroke="black" cx="691.995" cy="-162" rx="27" ry="18"/>
<text text-anchor="middle" x="691.995" y="-158.3" font-family="Times New Roman,serif" font-size="14.00">CE</text>
</g>
<!-- 176 -->
<g id="node3" class="node"><title>176</title>
<polygon fill="limegreen" stroke="green" points="718.995,-108 664.995,-108 664.995,-72 718.995,-72 718.995,-108"/>
<text text-anchor="middle" x="691.995" y="-86.3" font-family="Times New Roman,serif" font-size="14.00">0.790</text>
</g>
<!-- 158&#45;&gt;176 -->
<g id="edge27" class="edge"><title>158&#45;&gt;176</title>
<path fill="none" stroke="black" d="M691.995,-143.697C691.995,-135.983 691.995,-126.712 691.995,-118.112"/>
<polygon fill="black" stroke="black" points="695.495,-118.104 691.995,-108.104 688.495,-118.104 695.495,-118.104"/>
</g>
<!-- 183 -->
<g id="node2" class="node"><title>183</title>
<polygon fill="limegreen" stroke="green" points="217.995,-252 163.995,-252 163.995,-216 217.995,-216 217.995,-252"/>
<text text-anchor="middle" x="190.995" y="-230.3" font-family="Times New Roman,serif" font-size="14.00">0.764</text>
</g>
<!-- 121 -->
<g id="node4" class="node"><title>121</title>
<ellipse fill="pink" stroke="pink" cx="397.995" cy="-459.398" rx="23.3111" ry="23.3111"/>
<ellipse fill="none" stroke="pink" cx="397.995" cy="-459.398" rx="27.2962" ry="27.2962"/>
<text text-anchor="middle" x="397.995" y="-455.698" font-family="Times New Roman,serif" font-size="14.00">null</text>
</g>
<!-- 173 -->
<g id="node6" class="node"><title>173</title>
<ellipse fill="none" stroke="black" cx="51.9954" cy="-378" rx="51.9908" ry="18"/>
<text text-anchor="middle" x="51.9954" y="-374.3" font-family="Times New Roman,serif" font-size="14.00">classAssert</text>
</g>
<!-- 121&#45;&gt;173 -->
<g id="edge24" class="edge"><title>121&#45;&gt;173</title>
<path fill="none" stroke="black" d="M371.16,-453.048C320.497,-442.83 207.373,-419.463 112.995,-396 108.914,-394.985 104.691,-393.895 100.459,-392.773"/>
<polygon fill="black" stroke="black" points="101.199,-389.347 90.632,-390.121 99.3747,-396.105 101.199,-389.347"/>
</g>
<!-- 171 -->
<g id="node14" class="node"><title>171</title>
<ellipse fill="none" stroke="black" cx="190.995" cy="-378" rx="68.7879" ry="18"/>
<text text-anchor="middle" x="190.995" y="-374.3" font-family="Times New Roman,serif" font-size="14.00">numTestsCover</text>
</g>
<!-- 121&#45;&gt;171 -->
<g id="edge25" class="edge"><title>121&#45;&gt;171</title>
<path fill="none" stroke="black" d="M372.613,-448.662C339.06,-435.793 279.322,-412.879 237.551,-396.857"/>
<polygon fill="black" stroke="black" points="238.727,-393.56 228.137,-393.246 236.221,-400.095 238.727,-393.56"/>
</g>
<!-- 160 -->
<g id="node16" class="node"><title>160</title>
<ellipse fill="cyan" stroke="black" cx="335.995" cy="-378" rx="57.6901" ry="18"/>
<text text-anchor="middle" x="335.995" y="-374.3" font-family="Times New Roman,serif" font-size="14.00">DepthNested</text>
</g>
<!-- 121&#45;&gt;160 -->
<g id="edge10" class="edge"><title>121&#45;&gt;160</title>
<path fill="none" stroke="black" d="M381.381,-437.121C373.342,-426.827 363.646,-414.41 355.283,-403.7"/>
<polygon fill="black" stroke="black" points="357.833,-401.278 348.92,-395.551 352.316,-405.587 357.833,-401.278"/>
</g>
<!-- 122 -->
<g id="node21" class="node"><title>122</title>
<ellipse fill="none" stroke="black" cx="460.995" cy="-378" rx="49.2915" ry="18"/>
<text text-anchor="middle" x="460.995" y="-374.3" font-family="Times New Roman,serif" font-size="14.00">DepthTree</text>
</g>
<!-- 121&#45;&gt;122 -->
<g id="edge6" class="edge"><title>121&#45;&gt;122</title>
<path fill="none" stroke="black" d="M414.548,-437.537C422.857,-427.066 432.972,-414.318 441.638,-403.395"/>
<polygon fill="black" stroke="black" points="444.456,-405.475 447.93,-395.466 438.972,-401.124 444.456,-405.475"/>
</g>
<!-- 147 -->
<g id="node23" class="node"><title>147</title>
<ellipse fill="none" stroke="black" cx="631.995" cy="-378" rx="42.4939" ry="18"/>
<text text-anchor="middle" x="631.995" y="-374.3" font-family="Times New Roman,serif" font-size="14.00">McCabe</text>
</g>
<!-- 121&#45;&gt;147 -->
<g id="edge19" class="edge"><title>121&#45;&gt;147</title>
<path fill="none" stroke="black" d="M423.932,-449.598C464.231,-435.924 542.252,-409.451 590.459,-393.094"/>
<polygon fill="black" stroke="black" points="591.631,-396.392 599.976,-389.864 589.382,-389.763 591.631,-396.392"/>
</g>
<!-- 167 -->
<g id="node25" class="node"><title>167</title>
<ellipse fill="none" stroke="black" cx="748.995" cy="-378" rx="27" ry="18"/>
<text text-anchor="middle" x="748.995" y="-374.3" font-family="Times New Roman,serif" font-size="14.00">CE</text>
</g>
<!-- 121&#45;&gt;167 -->
<g id="edge21" class="edge"><title>121&#45;&gt;167</title>
<path fill="none" stroke="black" d="M424.788,-452.873C475.381,-442.365 588.391,-418.532 682.995,-396 693.268,-393.553 704.4,-390.746 714.544,-388.128"/>
<polygon fill="black" stroke="black" points="715.493,-391.497 724.289,-385.592 713.73,-384.723 715.493,-391.497"/>
</g>
<!-- 139 -->
<g id="node5" class="node"><title>139</title>
<ellipse fill="none" stroke="black" cx="457.995" cy="-306" rx="51.9908" ry="18"/>
<text text-anchor="middle" x="457.995" y="-302.3" font-family="Times New Roman,serif" font-size="14.00">classAssert</text>
</g>
<!-- 140 -->
<g id="node8" class="node"><title>140</title>
<ellipse fill="none" stroke="black" cx="367.995" cy="-234" rx="42.4939" ry="18"/>
<text text-anchor="middle" x="367.995" y="-230.3" font-family="Times New Roman,serif" font-size="14.00">McCabe</text>
</g>
<!-- 139&#45;&gt;140 -->
<g id="edge31" class="edge"><title>139&#45;&gt;140</title>
<path fill="none" stroke="black" d="M437.573,-289.116C425.118,-279.429 409.039,-266.923 395.476,-256.374"/>
<polygon fill="black" stroke="black" points="397.454,-253.478 387.412,-250.101 393.156,-259.004 397.454,-253.478"/>
</g>
<!-- 146 -->
<g id="node13" class="node"><title>146</title>
<ellipse fill="none" stroke="black" cx="454.995" cy="-234" rx="27" ry="18"/>
<text text-anchor="middle" x="454.995" y="-230.3" font-family="Times New Roman,serif" font-size="14.00">CE</text>
</g>
<!-- 139&#45;&gt;146 -->
<g id="edge2" class="edge"><title>139&#45;&gt;146</title>
<path fill="none" stroke="black" d="M457.254,-287.697C456.923,-279.983 456.526,-270.712 456.157,-262.112"/>
<polygon fill="black" stroke="black" points="459.653,-261.945 455.728,-252.104 452.66,-262.245 459.653,-261.945"/>
</g>
<!-- 144 -->
<g id="node28" class="node"><title>144</title>
<ellipse fill="none" stroke="black" cx="557.995" cy="-234" rx="57.6901" ry="18"/>
<text text-anchor="middle" x="557.995" y="-230.3" font-family="Times New Roman,serif" font-size="14.00">DepthNested</text>
</g>
<!-- 139&#45;&gt;144 -->
<g id="edge3" class="edge"><title>139&#45;&gt;144</title>
<path fill="none" stroke="black" d="M480.189,-289.465C493.945,-279.835 511.82,-267.323 526.967,-256.72"/>
<polygon fill="black" stroke="black" points="529.333,-259.336 535.518,-250.734 525.319,-253.601 529.333,-259.336"/>
</g>
<!-- 177 -->
<g id="node24" class="node"><title>177</title>
<polygon fill="limegreen" stroke="green" points="78.9954,-324 24.9954,-324 24.9954,-288 78.9954,-288 78.9954,-324"/>
<text text-anchor="middle" x="51.9954" y="-302.3" font-family="Times New Roman,serif" font-size="14.00">0.786</text>
</g>
<!-- 173&#45;&gt;177 -->
<g id="edge16" class="edge"><title>173&#45;&gt;177</title>
<path fill="none" stroke="black" d="M51.9954,-359.697C51.9954,-351.983 51.9954,-342.712 51.9954,-334.112"/>
<polygon fill="black" stroke="black" points="55.4955,-334.104 51.9954,-324.104 48.4955,-334.104 55.4955,-334.104"/>
</g>
<!-- 156 -->
<g id="node7" class="node"><title>156</title>
<ellipse fill="none" stroke="black" cx="691.995" cy="-306" rx="51.9908" ry="18"/>
<text text-anchor="middle" x="691.995" y="-302.3" font-family="Times New Roman,serif" font-size="14.00">classAssert</text>
</g>
<!-- 157 -->
<g id="node12" class="node"><title>157</title>
<ellipse fill="none" stroke="black" cx="691.995" cy="-234" rx="57.6901" ry="18"/>
<text text-anchor="middle" x="691.995" y="-230.3" font-family="Times New Roman,serif" font-size="14.00">DepthNested</text>
</g>
<!-- 156&#45;&gt;157 -->
<g id="edge15" class="edge"><title>156&#45;&gt;157</title>
<path fill="none" stroke="black" d="M691.995,-287.697C691.995,-279.983 691.995,-270.712 691.995,-262.112"/>
<polygon fill="black" stroke="black" points="695.495,-262.104 691.995,-252.104 688.495,-262.104 695.495,-262.104"/>
</g>
<!-- 159 -->
<g id="node30" class="node"><title>159</title>
<ellipse fill="none" stroke="black" cx="794.995" cy="-234" rx="27" ry="18"/>
<text text-anchor="middle" x="794.995" y="-230.3" font-family="Times New Roman,serif" font-size="14.00">CE</text>
</g>
<!-- 156&#45;&gt;159 -->
<g id="edge14" class="edge"><title>156&#45;&gt;159</title>
<path fill="none" stroke="black" d="M714.599,-289.638C730.288,-278.976 751.268,-264.718 767.861,-253.441"/>
<polygon fill="black" stroke="black" points="770.264,-256.04 776.567,-247.524 766.329,-250.25 770.264,-256.04"/>
</g>
<!-- 141 -->
<g id="node18" class="node"><title>141</title>
<ellipse fill="none" stroke="black" cx="295.995" cy="-162" rx="57.6901" ry="18"/>
<text text-anchor="middle" x="295.995" y="-158.3" font-family="Times New Roman,serif" font-size="14.00">DepthNested</text>
</g>
<!-- 140&#45;&gt;141 -->
<g id="edge22" class="edge"><title>140&#45;&gt;141</title>
<path fill="none" stroke="black" d="M351.657,-217.116C342.309,-208.027 330.409,-196.458 320.014,-186.351"/>
<polygon fill="black" stroke="black" points="322.378,-183.768 312.768,-179.307 317.498,-188.787 322.378,-183.768"/>
</g>
<!-- 143 -->
<g id="node26" class="node"><title>143</title>
<ellipse fill="none" stroke="black" cx="398.995" cy="-162" rx="27" ry="18"/>
<text text-anchor="middle" x="398.995" y="-158.3" font-family="Times New Roman,serif" font-size="14.00">CE</text>
</g>
<!-- 140&#45;&gt;143 -->
<g id="edge23" class="edge"><title>140&#45;&gt;143</title>
<path fill="none" stroke="black" d="M375.5,-216.055C379.079,-207.973 383.442,-198.121 387.432,-189.112"/>
<polygon fill="black" stroke="black" points="390.711,-190.35 391.56,-179.789 384.311,-187.515 390.711,-190.35"/>
</g>
<!-- 142 -->
<g id="node9" class="node"><title>142</title>
<ellipse fill="none" stroke="black" cx="295.995" cy="-90" rx="27" ry="18"/>
<text text-anchor="middle" x="295.995" y="-86.3" font-family="Times New Roman,serif" font-size="14.00">CE</text>
</g>
<!-- 182 -->
<g id="node22" class="node"><title>182</title>
<polygon fill="limegreen" stroke="green" points="322.995,-36 268.995,-36 268.995,-0 322.995,-0 322.995,-36"/>
<text text-anchor="middle" x="295.995" y="-14.3" font-family="Times New Roman,serif" font-size="14.00">0.786</text>
</g>
<!-- 142&#45;&gt;182 -->
<g id="edge29" class="edge"><title>142&#45;&gt;182</title>
<path fill="none" stroke="black" d="M295.995,-71.6966C295.995,-63.9827 295.995,-54.7125 295.995,-46.1124"/>
<polygon fill="black" stroke="black" points="299.495,-46.1043 295.995,-36.1043 292.495,-46.1044 299.495,-46.1043"/>
</g>
<!-- 166 -->
<g id="node10" class="node"><title>166</title>
<ellipse fill="cyan" stroke="black" cx="268.995" cy="-234" rx="27" ry="18"/>
<text text-anchor="middle" x="268.995" y="-230.3" font-family="Times New Roman,serif" font-size="14.00">CE</text>
</g>
<!-- 174 -->
<g id="node15" class="node"><title>174</title>
<polygon fill="limegreen" stroke="green" points="219.995,-180 165.995,-180 165.995,-144 219.995,-144 219.995,-180"/>
<text text-anchor="middle" x="192.995" y="-158.3" font-family="Times New Roman,serif" font-size="14.00">0.792</text>
</g>
<!-- 166&#45;&gt;174 -->
<g id="edge12" class="edge"><title>166&#45;&gt;174</title>
<path fill="none" stroke="black" d="M253.616,-218.834C243.748,-209.746 230.681,-197.71 219.206,-187.141"/>
<polygon fill="black" stroke="black" points="221.302,-184.313 211.575,-180.113 216.559,-189.462 221.302,-184.313"/>
</g>
<!-- 175 -->
<g id="node11" class="node"><title>175</title>
<polygon fill="limegreen" stroke="green" points="821.995,-180 767.995,-180 767.995,-144 821.995,-144 821.995,-180"/>
<text text-anchor="middle" x="794.995" y="-158.3" font-family="Times New Roman,serif" font-size="14.00">0.790</text>
</g>
<!-- 157&#45;&gt;158 -->
<g id="edge32" class="edge"><title>157&#45;&gt;158</title>
<path fill="none" stroke="black" d="M691.995,-215.697C691.995,-207.983 691.995,-198.712 691.995,-190.112"/>
<polygon fill="black" stroke="black" points="695.495,-190.104 691.995,-180.104 688.495,-190.104 695.495,-190.104"/>
</g>
<!-- 179 -->
<g id="node32" class="node"><title>179</title>
<polygon fill="limegreen" stroke="green" points="497.995,-180 443.995,-180 443.995,-144 497.995,-144 497.995,-180"/>
<text text-anchor="middle" x="470.995" y="-158.3" font-family="Times New Roman,serif" font-size="14.00">0.786</text>
</g>
<!-- 146&#45;&gt;179 -->
<g id="edge1" class="edge"><title>146&#45;&gt;179</title>
<path fill="none" stroke="black" d="M458.869,-216.055C460.65,-208.261 462.808,-198.822 464.806,-190.079"/>
<polygon fill="black" stroke="black" points="468.23,-190.804 467.047,-180.275 461.406,-189.244 468.23,-190.804"/>
</g>
<!-- 172 -->
<g id="node17" class="node"><title>172</title>
<ellipse fill="none" stroke="black" cx="190.995" cy="-306" rx="51.9908" ry="18"/>
<text text-anchor="middle" x="190.995" y="-302.3" font-family="Times New Roman,serif" font-size="14.00">classAssert</text>
</g>
<!-- 171&#45;&gt;172 -->
<g id="edge5" class="edge"><title>171&#45;&gt;172</title>
<path fill="none" stroke="black" d="M190.995,-359.697C190.995,-351.983 190.995,-342.712 190.995,-334.112"/>
<polygon fill="black" stroke="black" points="194.495,-334.104 190.995,-324.104 187.495,-334.104 194.495,-334.104"/>
</g>
<!-- 165 -->
<g id="node19" class="node"><title>165</title>
<ellipse fill="cyan" stroke="black" cx="322.995" cy="-306" rx="51.9908" ry="18"/>
<text text-anchor="middle" x="322.995" y="-302.3" font-family="Times New Roman,serif" font-size="14.00">classAssert</text>
</g>
<!-- 160&#45;&gt;165 -->
<g id="edge4" class="edge"><title>160&#45;&gt;165</title>
<path fill="none" stroke="black" d="M332.782,-359.697C331.349,-351.983 329.628,-342.712 328.031,-334.112"/>
<polygon fill="black" stroke="black" points="331.439,-333.297 326.172,-324.104 324.557,-334.575 331.439,-333.297"/>
</g>
<!-- 172&#45;&gt;183 -->
<g id="edge17" class="edge"><title>172&#45;&gt;183</title>
<path fill="none" stroke="black" d="M190.995,-287.697C190.995,-279.983 190.995,-270.712 190.995,-262.112"/>
<polygon fill="black" stroke="black" points="194.495,-262.104 190.995,-252.104 187.495,-262.104 194.495,-262.104"/>
</g>
<!-- 141&#45;&gt;142 -->
<g id="edge30" class="edge"><title>141&#45;&gt;142</title>
<path fill="none" stroke="black" d="M295.995,-143.697C295.995,-135.983 295.995,-126.712 295.995,-118.112"/>
<polygon fill="black" stroke="black" points="299.495,-118.104 295.995,-108.104 292.495,-118.104 299.495,-118.104"/>
</g>
<!-- 165&#45;&gt;166 -->
<g id="edge13" class="edge"><title>165&#45;&gt;166</title>
<path fill="none" stroke="black" d="M310.198,-288.411C303.347,-279.53 294.791,-268.439 287.254,-258.668"/>
<polygon fill="black" stroke="black" points="289.84,-256.291 280.961,-250.511 284.298,-260.567 289.84,-256.291"/>
</g>
<!-- 180 -->
<g id="node20" class="node"><title>180</title>
<polygon fill="limegreen" stroke="green" points="425.995,-108 371.995,-108 371.995,-72 425.995,-72 425.995,-108"/>
<text text-anchor="middle" x="398.995" y="-86.3" font-family="Times New Roman,serif" font-size="14.00">0.786</text>
</g>
<!-- 122&#45;&gt;139 -->
<g id="edge20" class="edge"><title>122&#45;&gt;139</title>
<path fill="none" stroke="black" d="M460.254,-359.697C459.923,-351.983 459.526,-342.712 459.157,-334.112"/>
<polygon fill="black" stroke="black" points="462.653,-333.945 458.728,-324.104 455.66,-334.245 462.653,-333.945"/>
</g>
<!-- 147&#45;&gt;156 -->
<g id="edge18" class="edge"><title>147&#45;&gt;156</title>
<path fill="none" stroke="black" d="M645.911,-360.765C653.376,-352.056 662.727,-341.147 671.051,-331.435"/>
<polygon fill="black" stroke="black" points="673.888,-333.504 677.738,-323.633 668.573,-328.948 673.888,-333.504"/>
</g>
<!-- 170 -->
<g id="node31" class="node"><title>170</title>
<ellipse fill="none" stroke="black" cx="839.995" cy="-306" rx="51.9908" ry="18"/>
<text text-anchor="middle" x="839.995" y="-302.3" font-family="Times New Roman,serif" font-size="14.00">classAssert</text>
</g>
<!-- 167&#45;&gt;170 -->
<g id="edge26" class="edge"><title>167&#45;&gt;170</title>
<path fill="none" stroke="black" d="M766.112,-363.834C778.883,-354.009 796.623,-340.364 811.518,-328.906"/>
<polygon fill="black" stroke="black" points="813.659,-331.675 819.451,-322.803 809.391,-326.126 813.659,-331.675"/>
</g>
<!-- 143&#45;&gt;180 -->
<g id="edge9" class="edge"><title>143&#45;&gt;180</title>
<path fill="none" stroke="black" d="M398.995,-143.697C398.995,-135.983 398.995,-126.712 398.995,-118.112"/>
<polygon fill="black" stroke="black" points="402.495,-118.104 398.995,-108.104 395.495,-118.104 402.495,-118.104"/>
</g>
<!-- 178 -->
<g id="node27" class="node"><title>178</title>
<polygon fill="limegreen" stroke="green" points="893.995,-252 839.995,-252 839.995,-216 893.995,-216 893.995,-252"/>
<text text-anchor="middle" x="866.995" y="-230.3" font-family="Times New Roman,serif" font-size="14.00">0.786</text>
</g>
<!-- 145 -->
<g id="node29" class="node"><title>145</title>
<ellipse fill="none" stroke="black" cx="557.995" cy="-162" rx="27" ry="18"/>
<text text-anchor="middle" x="557.995" y="-158.3" font-family="Times New Roman,serif" font-size="14.00">CE</text>
</g>
<!-- 144&#45;&gt;145 -->
<g id="edge7" class="edge"><title>144&#45;&gt;145</title>
<path fill="none" stroke="black" d="M557.995,-215.697C557.995,-207.983 557.995,-198.712 557.995,-190.112"/>
<polygon fill="black" stroke="black" points="561.495,-190.104 557.995,-180.104 554.495,-190.104 561.495,-190.104"/>
</g>
<!-- 181 -->
<g id="node33" class="node"><title>181</title>
<polygon fill="limegreen" stroke="green" points="584.995,-108 530.995,-108 530.995,-72 584.995,-72 584.995,-108"/>
<text text-anchor="middle" x="557.995" y="-86.3" font-family="Times New Roman,serif" font-size="14.00">0.786</text>
</g>
<!-- 145&#45;&gt;181 -->
<g id="edge28" class="edge"><title>145&#45;&gt;181</title>
<path fill="none" stroke="black" d="M557.995,-143.697C557.995,-135.983 557.995,-126.712 557.995,-118.112"/>
<polygon fill="black" stroke="black" points="561.495,-118.104 557.995,-108.104 554.495,-118.104 561.495,-118.104"/>
</g>
<!-- 159&#45;&gt;175 -->
<g id="edge11" class="edge"><title>159&#45;&gt;175</title>
<path fill="none" stroke="black" d="M794.995,-215.697C794.995,-207.983 794.995,-198.712 794.995,-190.112"/>
<polygon fill="black" stroke="black" points="798.495,-190.104 794.995,-180.104 791.495,-190.104 798.495,-190.104"/>
</g>
<!-- 170&#45;&gt;178 -->
<g id="edge8" class="edge"><title>170&#45;&gt;178</title>
<path fill="none" stroke="black" d="M846.531,-288.055C849.57,-280.176 853.258,-270.617 856.661,-261.794"/>
<polygon fill="black" stroke="black" points="859.999,-262.865 860.332,-252.275 853.468,-260.346 859.999,-262.865"/>
</g>
</g>
</svg>
