<?xml version="1.0" encoding="UTF-8" standalone="no"?>
<!DOCTYPE svg PUBLIC "-//W3C//DTD SVG 1.1//EN"
 "http://www.w3.org/Graphics/SVG/1.1/DTD/svg11.dtd">
<!-- Generated by graphviz version 2.38.0 (20140413.2041)
 -->
<!-- Title: FeatureTree Pages: 1 -->
<svg width="840pt" height="516pt"
 viewBox="0.00 0.00 839.75 516.00" xmlns="http://www.w3.org/2000/svg" xmlns:xlink="http://www.w3.org/1999/xlink">
<g id="graph0" class="graph" transform="scale(1 1) rotate(0) translate(4 512)">
<title>FeatureTree</title>
<polygon fill="white" stroke="none" points="-4,4 -4,-512 835.751,-512 835.751,4 -4,4"/>
<!-- 15 -->
<g id="node1" class="node"><title>15</title>
<ellipse fill="none" stroke="black" cx="396.775" cy="-288" rx="54.6905" ry="18"/>
<text text-anchor="middle" x="396.775" y="-284.3" font-family="Times New Roman,serif" font-size="14.00">workaround</text>
</g>
<!-- 34 -->
<g id="node22" class="node"><title>34</title>
<polygon fill="limegreen" stroke="green" points="568.965,-292 514.965,-292 514.965,-256 568.965,-256 568.965,-292"/>
<text text-anchor="middle" x="541.965" y="-270.3" font-family="Times New Roman,serif" font-size="14.00">0.673</text>
</g>
<!-- 15&#45;&gt;34 -->
<g id="edge3" class="edge"><title>15&#45;&gt;34</title>
<path fill="none" stroke="black" d="M449.47,-282.946C467.607,-281.172 487.595,-279.218 504.25,-277.59"/>
<polygon fill="black" stroke="black" points="505.048,-281.028 514.66,-276.572 504.367,-274.062 505.048,-281.028"/>
</g>
<!-- 0 -->
<g id="node2" class="node"><title>0</title>
<ellipse fill="pink" stroke="pink" cx="27.3979" cy="-207" rx="23.3111" ry="23.3111"/>
<ellipse fill="none" stroke="pink" cx="27.3979" cy="-207" rx="27.2962" ry="27.2962"/>
<text text-anchor="middle" x="27.3979" y="-203.3" font-family="Times New Roman,serif" font-size="14.00">null</text>
</g>
<!-- 25 -->
<g id="node7" class="node"><title>25</title>
<ellipse fill="none" stroke="black" cx="125.893" cy="-368" rx="35.194" ry="18"/>
<text text-anchor="middle" x="125.893" y="-364.3" font-family="Times New Roman,serif" font-size="14.00">should</text>
</g>
<!-- 0&#45;&gt;25 -->
<g id="edge10" class="edge"><title>0&#45;&gt;25</title>
<path fill="none" stroke="black" d="M42.2233,-230.067C59.9807,-259.695 90.7185,-310.981 109.294,-341.974"/>
<polygon fill="black" stroke="black" points="106.497,-344.116 114.64,-350.894 112.502,-340.517 106.497,-344.116"/>
</g>
<!-- 1 -->
<g id="node17" class="node"><title>1</title>
<ellipse fill="none" stroke="black" cx="125.893" cy="-234" rx="27" ry="18"/>
<text text-anchor="middle" x="125.893" y="-230.3" font-family="Times New Roman,serif" font-size="14.00">fix</text>
</g>
<!-- 0&#45;&gt;1 -->
<g id="edge30" class="edge"><title>0&#45;&gt;1</title>
<path fill="none" stroke="black" d="M54.0034,-214.165C65.3447,-217.338 78.8447,-221.115 91.0055,-224.518"/>
<polygon fill="black" stroke="black" points="90.2556,-227.943 100.829,-227.267 92.1418,-221.202 90.2556,-227.943"/>
</g>
<!-- 29 -->
<g id="node19" class="node"><title>29</title>
<ellipse fill="none" stroke="black" cx="125.893" cy="-180" rx="27.8951" ry="18"/>
<text text-anchor="middle" x="125.893" y="-176.3" font-family="Times New Roman,serif" font-size="14.00">todo</text>
</g>
<!-- 0&#45;&gt;29 -->
<g id="edge7" class="edge"><title>0&#45;&gt;29</title>
<path fill="none" stroke="black" d="M54.0034,-199.835C65.083,-196.735 78.2228,-193.059 90.1615,-189.718"/>
<polygon fill="black" stroke="black" points="91.149,-193.076 99.836,-187.011 89.2627,-186.335 91.149,-193.076"/>
</g>
<!-- 17 -->
<g id="node20" class="node"><title>17</title>
<ellipse fill="cyan" stroke="black" cx="125.893" cy="-99" rx="27.8951" ry="18"/>
<text text-anchor="middle" x="125.893" y="-95.3" font-family="Times New Roman,serif" font-size="14.00">hack</text>
</g>
<!-- 0&#45;&gt;17 -->
<g id="edge8" class="edge"><title>0&#45;&gt;17</title>
<path fill="none" stroke="black" d="M46.3217,-186.939C62.8004,-168.496 87.2156,-141.169 104.448,-121.883"/>
<polygon fill="black" stroke="black" points="107.069,-124.202 111.122,-114.413 101.849,-119.538 107.069,-124.202"/>
</g>
<!-- 8 -->
<g id="node3" class="node"><title>8</title>
<ellipse fill="none" stroke="black" cx="541.965" cy="-436" rx="54.6905" ry="18"/>
<text text-anchor="middle" x="541.965" y="-432.3" font-family="Times New Roman,serif" font-size="14.00">workaround</text>
</g>
<!-- 32 -->
<g id="node25" class="node"><title>32</title>
<polygon fill="limegreen" stroke="green" points="714.156,-454 660.156,-454 660.156,-418 714.156,-418 714.156,-454"/>
<text text-anchor="middle" x="687.156" y="-432.3" font-family="Times New Roman,serif" font-size="14.00">0.709</text>
</g>
<!-- 8&#45;&gt;32 -->
<g id="edge34" class="edge"><title>8&#45;&gt;32</title>
<path fill="none" stroke="black" d="M596.692,-436C614.398,-436 633.662,-436 649.764,-436"/>
<polygon fill="black" stroke="black" points="649.84,-439.5 659.84,-436 649.84,-432.5 649.84,-439.5"/>
</g>
<!-- 12 -->
<g id="node4" class="node"><title>12</title>
<ellipse fill="none" stroke="black" cx="541.965" cy="-220" rx="54.6905" ry="18"/>
<text text-anchor="middle" x="541.965" y="-216.3" font-family="Times New Roman,serif" font-size="14.00">workaround</text>
</g>
<!-- 38 -->
<g id="node21" class="node"><title>38</title>
<polygon fill="limegreen" stroke="green" points="714.156,-238 660.156,-238 660.156,-202 714.156,-202 714.156,-238"/>
<text text-anchor="middle" x="687.156" y="-216.3" font-family="Times New Roman,serif" font-size="14.00">0.637</text>
</g>
<!-- 12&#45;&gt;38 -->
<g id="edge11" class="edge"><title>12&#45;&gt;38</title>
<path fill="none" stroke="black" d="M596.692,-220C614.398,-220 633.662,-220 649.764,-220"/>
<polygon fill="black" stroke="black" points="649.84,-223.5 659.84,-220 649.84,-216.5 649.84,-223.5"/>
</g>
<!-- 35 -->
<g id="node5" class="node"><title>35</title>
<polygon fill="limegreen" stroke="green" points="714.156,-90 660.156,-90 660.156,-54 714.156,-54 714.156,-90"/>
<text text-anchor="middle" x="687.156" y="-68.3" font-family="Times New Roman,serif" font-size="14.00">0.671</text>
</g>
<!-- 23 -->
<g id="node6" class="node"><title>23</title>
<ellipse fill="cyan" stroke="black" cx="396.775" cy="-18" rx="54.6905" ry="18"/>
<text text-anchor="middle" x="396.775" y="-14.3" font-family="Times New Roman,serif" font-size="14.00">workaround</text>
</g>
<!-- 31 -->
<g id="node12" class="node"><title>31</title>
<polygon fill="limegreen" stroke="green" points="568.965,-36 514.965,-36 514.965,-0 568.965,-0 568.965,-36"/>
<text text-anchor="middle" x="541.965" y="-14.3" font-family="Times New Roman,serif" font-size="14.00">0.720</text>
</g>
<!-- 23&#45;&gt;31 -->
<g id="edge22" class="edge"><title>23&#45;&gt;31</title>
<path fill="none" stroke="black" d="M451.501,-18C469.208,-18 488.472,-18 504.574,-18"/>
<polygon fill="black" stroke="black" points="504.65,-21.5001 514.65,-18 504.65,-14.5001 504.65,-21.5001"/>
</g>
<!-- 26 -->
<g id="node30" class="node"><title>26</title>
<ellipse fill="none" stroke="black" cx="251.585" cy="-449" rx="27.8951" ry="18"/>
<text text-anchor="middle" x="251.585" y="-445.3" font-family="Times New Roman,serif" font-size="14.00">todo</text>
</g>
<!-- 25&#45;&gt;26 -->
<g id="edge1" class="edge"><title>25&#45;&gt;26</title>
<path fill="none" stroke="black" d="M148.156,-381.924C168.767,-395.421 200.144,-415.969 222.737,-430.764"/>
<polygon fill="black" stroke="black" points="220.942,-433.772 231.225,-436.322 224.777,-427.916 220.942,-433.772"/>
</g>
<!-- 11 -->
<g id="node8" class="node"><title>11</title>
<ellipse fill="none" stroke="black" cx="396.775" cy="-234" rx="27.8951" ry="18"/>
<text text-anchor="middle" x="396.775" y="-230.3" font-family="Times New Roman,serif" font-size="14.00">todo</text>
</g>
<!-- 11&#45;&gt;12 -->
<g id="edge6" class="edge"><title>11&#45;&gt;12</title>
<path fill="none" stroke="black" d="M424.708,-231.367C440.159,-229.856 460.231,-227.894 479.337,-226.026"/>
<polygon fill="black" stroke="black" points="479.9,-229.487 489.512,-225.031 479.219,-222.52 479.9,-229.487"/>
</g>
<!-- 21 -->
<g id="node9" class="node"><title>21</title>
<ellipse fill="none" stroke="black" cx="396.775" cy="-126" rx="54.6905" ry="18"/>
<text text-anchor="middle" x="396.775" y="-122.3" font-family="Times New Roman,serif" font-size="14.00">workaround</text>
</g>
<!-- 40 -->
<g id="node26" class="node"><title>40</title>
<polygon fill="limegreen" stroke="green" points="568.965,-144 514.965,-144 514.965,-108 568.965,-108 568.965,-144"/>
<text text-anchor="middle" x="541.965" y="-122.3" font-family="Times New Roman,serif" font-size="14.00">0.309</text>
</g>
<!-- 21&#45;&gt;40 -->
<g id="edge23" class="edge"><title>21&#45;&gt;40</title>
<path fill="none" stroke="black" d="M451.501,-126C469.208,-126 488.472,-126 504.574,-126"/>
<polygon fill="black" stroke="black" points="504.65,-129.5 514.65,-126 504.65,-122.5 504.65,-129.5"/>
</g>
<!-- 5 -->
<g id="node10" class="node"><title>5</title>
<ellipse fill="none" stroke="black" cx="687.156" cy="-382" rx="54.6905" ry="18"/>
<text text-anchor="middle" x="687.156" y="-378.3" font-family="Times New Roman,serif" font-size="14.00">workaround</text>
</g>
<!-- 36 -->
<g id="node13" class="node"><title>36</title>
<polygon fill="limegreen" stroke="green" points="831.751,-400 777.751,-400 777.751,-364 831.751,-364 831.751,-400"/>
<text text-anchor="middle" x="804.751" y="-378.3" font-family="Times New Roman,serif" font-size="14.00">0.665</text>
</g>
<!-- 5&#45;&gt;36 -->
<g id="edge26" class="edge"><title>5&#45;&gt;36</title>
<path fill="none" stroke="black" d="M741.892,-382C750.501,-382 759.231,-382 767.312,-382"/>
<polygon fill="black" stroke="black" points="767.498,-385.5 777.498,-382 767.498,-378.5 767.498,-385.5"/>
</g>
<!-- 18 -->
<g id="node11" class="node"><title>18</title>
<ellipse fill="none" stroke="black" cx="251.585" cy="-99" rx="35.194" ry="18"/>
<text text-anchor="middle" x="251.585" y="-95.3" font-family="Times New Roman,serif" font-size="14.00">should</text>
</g>
<!-- 18&#45;&gt;21 -->
<g id="edge16" class="edge"><title>18&#45;&gt;21</title>
<path fill="none" stroke="black" d="M284.719,-105.059C300.721,-108.077 320.547,-111.815 338.999,-115.294"/>
<polygon fill="black" stroke="black" points="338.601,-118.781 349.077,-117.195 339.898,-111.902 338.601,-118.781"/>
</g>
<!-- 19 -->
<g id="node36" class="node"><title>19</title>
<ellipse fill="none" stroke="black" cx="396.775" cy="-72" rx="27.8951" ry="18"/>
<text text-anchor="middle" x="396.775" y="-68.3" font-family="Times New Roman,serif" font-size="14.00">todo</text>
</g>
<!-- 18&#45;&gt;19 -->
<g id="edge35" class="edge"><title>18&#45;&gt;19</title>
<path fill="none" stroke="black" d="M284.719,-92.9407C306.886,-88.761 336.391,-83.1974 359.418,-78.8555"/>
<polygon fill="black" stroke="black" points="360.314,-82.2483 369.492,-76.9559 359.017,-75.3695 360.314,-82.2483"/>
</g>
<!-- 4 -->
<g id="node14" class="node"><title>4</title>
<ellipse fill="none" stroke="black" cx="541.965" cy="-382" rx="27.8951" ry="18"/>
<text text-anchor="middle" x="541.965" y="-378.3" font-family="Times New Roman,serif" font-size="14.00">todo</text>
</g>
<!-- 4&#45;&gt;5 -->
<g id="edge13" class="edge"><title>4&#45;&gt;5</title>
<path fill="none" stroke="black" d="M570.235,-382C585.024,-382 603.972,-382 622.244,-382"/>
<polygon fill="black" stroke="black" points="622.296,-385.5 632.296,-382 622.296,-378.5 622.296,-385.5"/>
</g>
<!-- 2 -->
<g id="node15" class="node"><title>2</title>
<ellipse fill="none" stroke="black" cx="251.585" cy="-355" rx="27.8951" ry="18"/>
<text text-anchor="middle" x="251.585" y="-351.3" font-family="Times New Roman,serif" font-size="14.00">hack</text>
</g>
<!-- 7 -->
<g id="node16" class="node"><title>7</title>
<ellipse fill="none" stroke="black" cx="396.775" cy="-423" rx="27.8951" ry="18"/>
<text text-anchor="middle" x="396.775" y="-419.3" font-family="Times New Roman,serif" font-size="14.00">todo</text>
</g>
<!-- 2&#45;&gt;7 -->
<g id="edge33" class="edge"><title>2&#45;&gt;7</title>
<path fill="none" stroke="black" d="M274.644,-365.476C298.785,-376.94 337.662,-395.403 364.842,-408.31"/>
<polygon fill="black" stroke="black" points="363.391,-411.495 373.925,-412.624 366.394,-405.172 363.391,-411.495"/>
</g>
<!-- 3 -->
<g id="node31" class="node"><title>3</title>
<ellipse fill="none" stroke="black" cx="396.775" cy="-355" rx="35.194" ry="18"/>
<text text-anchor="middle" x="396.775" y="-351.3" font-family="Times New Roman,serif" font-size="14.00">should</text>
</g>
<!-- 2&#45;&gt;3 -->
<g id="edge29" class="edge"><title>2&#45;&gt;3</title>
<path fill="none" stroke="black" d="M279.855,-355C300.07,-355 328.059,-355 351.469,-355"/>
<polygon fill="black" stroke="black" points="351.522,-358.5 361.522,-355 351.521,-351.5 351.522,-358.5"/>
</g>
<!-- 7&#45;&gt;8 -->
<g id="edge9" class="edge"><title>7&#45;&gt;8</title>
<path fill="none" stroke="black" d="M424.708,-425.445C440.09,-426.842 460.053,-428.654 479.082,-430.382"/>
<polygon fill="black" stroke="black" points="478.944,-433.884 489.22,-431.302 479.577,-426.912 478.944,-433.884"/>
</g>
<!-- 1&#45;&gt;2 -->
<g id="edge24" class="edge"><title>1&#45;&gt;2</title>
<path fill="none" stroke="black" d="M138.893,-249.816C152.172,-266.826 174.659,-294.226 196.99,-315 205.023,-322.473 214.429,-329.88 223.099,-336.25"/>
<polygon fill="black" stroke="black" points="221.28,-339.253 231.445,-342.24 225.361,-333.566 221.28,-339.253"/>
</g>
<!-- 14 -->
<g id="node24" class="node"><title>14</title>
<ellipse fill="none" stroke="black" cx="251.585" cy="-288" rx="27.8951" ry="18"/>
<text text-anchor="middle" x="251.585" y="-284.3" font-family="Times New Roman,serif" font-size="14.00">todo</text>
</g>
<!-- 1&#45;&gt;14 -->
<g id="edge27" class="edge"><title>1&#45;&gt;14</title>
<path fill="none" stroke="black" d="M149.006,-243.654C168.376,-252.11 196.764,-264.503 218.608,-274.04"/>
<polygon fill="black" stroke="black" points="217.261,-277.271 227.826,-278.064 220.061,-270.855 217.261,-277.271"/>
</g>
<!-- 10 -->
<g id="node27" class="node"><title>10</title>
<ellipse fill="none" stroke="black" cx="251.585" cy="-234" rx="35.194" ry="18"/>
<text text-anchor="middle" x="251.585" y="-230.3" font-family="Times New Roman,serif" font-size="14.00">should</text>
</g>
<!-- 1&#45;&gt;10 -->
<g id="edge32" class="edge"><title>1&#45;&gt;10</title>
<path fill="none" stroke="black" d="M153.125,-234C168.538,-234 188.427,-234 206.216,-234"/>
<polygon fill="black" stroke="black" points="206.396,-237.5 216.396,-234 206.396,-230.5 206.396,-237.5"/>
</g>
<!-- 27 -->
<g id="node18" class="node"><title>27</title>
<ellipse fill="none" stroke="black" cx="396.775" cy="-490" rx="54.6905" ry="18"/>
<text text-anchor="middle" x="396.775" y="-486.3" font-family="Times New Roman,serif" font-size="14.00">workaround</text>
</g>
<!-- 37 -->
<g id="node33" class="node"><title>37</title>
<polygon fill="limegreen" stroke="green" points="568.965,-508 514.965,-508 514.965,-472 568.965,-472 568.965,-508"/>
<text text-anchor="middle" x="541.965" y="-486.3" font-family="Times New Roman,serif" font-size="14.00">0.640</text>
</g>
<!-- 27&#45;&gt;37 -->
<g id="edge15" class="edge"><title>27&#45;&gt;37</title>
<path fill="none" stroke="black" d="M451.501,-490C469.208,-490 488.472,-490 504.574,-490"/>
<polygon fill="black" stroke="black" points="504.65,-493.5 514.65,-490 504.65,-486.5 504.65,-493.5"/>
</g>
<!-- 30 -->
<g id="node34" class="node"><title>30</title>
<ellipse fill="none" stroke="black" cx="251.585" cy="-180" rx="54.6905" ry="18"/>
<text text-anchor="middle" x="251.585" y="-176.3" font-family="Times New Roman,serif" font-size="14.00">workaround</text>
</g>
<!-- 29&#45;&gt;30 -->
<g id="edge5" class="edge"><title>29&#45;&gt;30</title>
<path fill="none" stroke="black" d="M154.037,-180C163.773,-180 175.205,-180 186.73,-180"/>
<polygon fill="black" stroke="black" points="186.841,-183.5 196.841,-180 186.841,-176.5 186.841,-183.5"/>
</g>
<!-- 17&#45;&gt;18 -->
<g id="edge12" class="edge"><title>17&#45;&gt;18</title>
<path fill="none" stroke="black" d="M154.037,-99C169.375,-99 188.922,-99 206.411,-99"/>
<polygon fill="black" stroke="black" points="206.423,-102.5 216.423,-99 206.423,-95.5001 206.423,-102.5"/>
</g>
<!-- 22 -->
<g id="node23" class="node"><title>22</title>
<ellipse fill="cyan" stroke="black" cx="251.585" cy="-31" rx="27.8951" ry="18"/>
<text text-anchor="middle" x="251.585" y="-27.3" font-family="Times New Roman,serif" font-size="14.00">todo</text>
</g>
<!-- 17&#45;&gt;22 -->
<g id="edge4" class="edge"><title>17&#45;&gt;22</title>
<path fill="none" stroke="black" d="M147.596,-87.6183C167.664,-76.5859 198.309,-59.7388 220.957,-47.288"/>
<polygon fill="black" stroke="black" points="222.737,-50.3035 229.814,-42.4188 219.365,-44.1693 222.737,-50.3035"/>
</g>
<!-- 22&#45;&gt;23 -->
<g id="edge19" class="edge"><title>22&#45;&gt;23</title>
<path fill="none" stroke="black" d="M279.518,-28.5548C294.9,-27.1583 314.862,-25.3459 333.892,-23.6183"/>
<polygon fill="black" stroke="black" points="334.387,-27.0878 344.029,-22.6979 333.754,-20.1165 334.387,-27.0878"/>
</g>
<!-- 14&#45;&gt;15 -->
<g id="edge31" class="edge"><title>14&#45;&gt;15</title>
<path fill="none" stroke="black" d="M279.855,-288C294.643,-288 313.591,-288 331.864,-288"/>
<polygon fill="black" stroke="black" points="331.915,-291.5 341.915,-288 331.915,-284.5 331.915,-291.5"/>
</g>
<!-- 10&#45;&gt;11 -->
<g id="edge28" class="edge"><title>10&#45;&gt;11</title>
<path fill="none" stroke="black" d="M286.882,-234C308.453,-234 336.29,-234 358.419,-234"/>
<polygon fill="black" stroke="black" points="358.456,-237.5 368.456,-234 358.456,-230.5 358.456,-237.5"/>
</g>
<!-- 20 -->
<g id="node28" class="node"><title>20</title>
<ellipse fill="none" stroke="black" cx="541.965" cy="-72" rx="54.6905" ry="18"/>
<text text-anchor="middle" x="541.965" y="-68.3" font-family="Times New Roman,serif" font-size="14.00">workaround</text>
</g>
<!-- 20&#45;&gt;35 -->
<g id="edge25" class="edge"><title>20&#45;&gt;35</title>
<path fill="none" stroke="black" d="M596.692,-72C614.398,-72 633.662,-72 649.764,-72"/>
<polygon fill="black" stroke="black" points="649.84,-75.5001 659.84,-72 649.84,-68.5001 649.84,-75.5001"/>
</g>
<!-- 33 -->
<g id="node29" class="node"><title>33</title>
<polygon fill="limegreen" stroke="green" points="423.775,-198 369.775,-198 369.775,-162 423.775,-162 423.775,-198"/>
<text text-anchor="middle" x="396.775" y="-176.3" font-family="Times New Roman,serif" font-size="14.00">0.678</text>
</g>
<!-- 26&#45;&gt;27 -->
<g id="edge17" class="edge"><title>26&#45;&gt;27</title>
<path fill="none" stroke="black" d="M277.527,-456.142C296.093,-461.458 322.073,-468.897 344.954,-475.448"/>
<polygon fill="black" stroke="black" points="344.297,-478.901 354.874,-478.289 346.224,-472.171 344.297,-478.901"/>
</g>
<!-- 3&#45;&gt;4 -->
<g id="edge21" class="edge"><title>3&#45;&gt;4</title>
<path fill="none" stroke="black" d="M429.91,-361.059C452.076,-365.239 481.582,-370.803 504.608,-375.144"/>
<polygon fill="black" stroke="black" points="504.207,-378.63 514.683,-377.044 505.504,-371.752 504.207,-378.63"/>
</g>
<!-- 6 -->
<g id="node35" class="node"><title>6</title>
<ellipse fill="none" stroke="black" cx="541.965" cy="-328" rx="54.6905" ry="18"/>
<text text-anchor="middle" x="541.965" y="-324.3" font-family="Times New Roman,serif" font-size="14.00">workaround</text>
</g>
<!-- 3&#45;&gt;6 -->
<g id="edge14" class="edge"><title>3&#45;&gt;6</title>
<path fill="none" stroke="black" d="M429.91,-348.941C445.911,-345.923 465.737,-342.185 484.19,-338.706"/>
<polygon fill="black" stroke="black" points="485.089,-342.098 494.267,-336.805 483.791,-335.219 485.089,-342.098"/>
</g>
<!-- 39 -->
<g id="node32" class="node"><title>39</title>
<polygon fill="limegreen" stroke="green" points="714.156,-346 660.156,-346 660.156,-310 714.156,-310 714.156,-346"/>
<text text-anchor="middle" x="687.156" y="-324.3" font-family="Times New Roman,serif" font-size="14.00">0.326</text>
</g>
<!-- 30&#45;&gt;33 -->
<g id="edge20" class="edge"><title>30&#45;&gt;33</title>
<path fill="none" stroke="black" d="M306.311,-180C324.018,-180 343.282,-180 359.383,-180"/>
<polygon fill="black" stroke="black" points="359.46,-183.5 369.46,-180 359.46,-176.5 359.46,-183.5"/>
</g>
<!-- 6&#45;&gt;39 -->
<g id="edge18" class="edge"><title>6&#45;&gt;39</title>
<path fill="none" stroke="black" d="M596.692,-328C614.398,-328 633.662,-328 649.764,-328"/>
<polygon fill="black" stroke="black" points="649.84,-331.5 659.84,-328 649.84,-324.5 649.84,-331.5"/>
</g>
<!-- 19&#45;&gt;20 -->
<g id="edge2" class="edge"><title>19&#45;&gt;20</title>
<path fill="none" stroke="black" d="M425.045,-72C439.833,-72 458.782,-72 477.054,-72"/>
<polygon fill="black" stroke="black" points="477.105,-75.5001 487.105,-72 477.105,-68.5001 477.105,-75.5001"/>
</g>
</g>
</svg>
